<svg width="21" height="20" viewBox="0 0 21 20" fill="none" xmlns="http://www.w3.org/2000/svg">
<path d="M10.2 16.2707C10.4007 16.1495 10.652 16.1495 10.8527 16.2707L15.7501 19.2266C16.2284 19.5152 16.8184 19.0864 16.6915 18.5423L15.3919 12.9712C15.3386 12.7429 15.4162 12.5039 15.5934 12.3504L19.9212 8.60119C20.3435 8.23537 20.1178 7.54174 19.5611 7.49451L13.8637 7.01114C13.6303 6.99134 13.427 6.84397 13.3356 6.62829L11.1078 1.37202C10.8902 0.858532 10.1624 0.858532 9.94481 1.37202L7.71704 6.62829C7.62563 6.84397 7.42234 6.99134 7.18893 7.01114L1.49156 7.49451C0.934866 7.54174 0.709134 8.23538 1.13141 8.60119L5.45924 12.3504C5.63644 12.5039 5.71402 12.7429 5.66076 12.9712L4.3611 18.5423C4.23418 19.0864 4.82422 19.5152 5.30253 19.2266L10.2 16.2707Z" fill="#1CB954"/>
</svg>
