<svg width="21" height="20" viewBox="0 0 21 20" fill="none" xmlns="http://www.w3.org/2000/svg">
<path d="M10.4053 1.56738C10.4506 1.46041 10.6021 1.4604 10.6475 1.56738L12.875 6.82324C13.0388 7.20964 13.4031 7.47425 13.8213 7.50977L19.5186 7.99316C19.6345 8.003 19.6817 8.14742 19.5938 8.22363L15.2656 11.9727C14.9484 12.2477 14.8099 12.676 14.9053 13.085L16.2051 18.6562C16.2311 18.7693 16.1083 18.8584 16.0088 18.7988L11.1113 15.8428C10.7517 15.6257 10.301 15.6257 9.94141 15.8428L5.04395 18.7988C4.94447 18.8585 4.8216 18.7693 4.84766 18.6562L6.14746 13.085C6.24285 12.6761 6.10433 12.2477 5.78711 11.9727L1.45898 8.22363C1.37101 8.14742 1.4182 8.003 1.53418 7.99316L7.23145 7.50977C7.64956 7.47421 8.01398 7.20961 8.17773 6.82324L10.4053 1.56738Z" fill="#A0A0A0" stroke="#A0A0A0"/>
</svg>
