<svg width="22" height="22" viewBox="0 0 22 22" fill="none" xmlns="http://www.w3.org/2000/svg">
<g clip-path="url(#clip0_828_1253)">
<path d="M1.89717 21.169V21.1685C0.849472 21.1684 0 20.3197 0 19.272V4.55203C0 4.10355 0.363556 3.73999 0.812042 3.73999H8.05077V21.169H1.89717Z" fill="#A0A0A0"/>
<path d="M1.89717 3.73999H2.18788V19.2719C2.18788 20.0325 1.74007 20.6878 1.09402 20.9901C1.33791 21.1042 1.60999 21.1684 1.89717 21.1684L8.05077 21.169V3.73999H1.89717Z" fill="#6C6C6C"/>
<path d="M4.60623 0.859375C4.15791 0.859375 3.79436 1.22293 3.79436 1.67142V19.272C3.79436 20.3197 2.94489 21.1692 1.89719 21.1692H20.1028C21.1505 21.1692 22 20.3197 22 19.272V1.67142C22 1.22293 21.6365 0.859375 21.188 0.859375H4.60623Z" fill="#A0A0A0"/>
<path d="M11.495 13.4423H6.94182C6.69122 13.4423 6.48813 13.2392 6.48813 12.9888V8.43562C6.48813 8.18503 6.69122 7.98193 6.94182 7.98193H11.495C11.7456 7.98193 11.9487 8.18503 11.9487 8.43562V12.9888C11.9485 13.2392 11.7456 13.4423 11.495 13.4423Z" fill="#6C6C6C"/>
<path d="M7.81613 12.9888V8.43562C7.81613 8.18503 8.01923 7.98193 8.26982 7.98193H6.94182C6.69139 7.98193 6.48813 8.18503 6.48813 8.43562V12.9888C6.48813 13.2392 6.69122 13.4423 6.94182 13.4423H8.26982C8.01923 13.4423 7.81613 13.2392 7.81613 12.9888Z" fill="#333333"/>
<path d="M19.6491 8.3042H13.4873C13.3092 8.3042 13.1651 8.15985 13.1651 7.98193C13.1651 7.80385 13.3092 7.65967 13.4873 7.65967H19.6491C19.8271 7.65967 19.9714 7.80385 19.9714 7.98193C19.9714 8.15985 19.8271 8.3042 19.6491 8.3042Z" fill="#1C1C1C"/>
<path d="M19.6491 11.0342H13.4873C13.3092 11.0342 13.1651 10.89 13.1651 10.7119C13.1651 10.534 13.3092 10.3896 13.4873 10.3896H19.6491C19.8271 10.3896 19.9714 10.534 19.9714 10.7119C19.9714 10.89 19.8271 11.0342 19.6491 11.0342Z" fill="#1C1C1C"/>
<path d="M19.6491 13.7646H13.4873C13.3092 13.7646 13.1651 13.6205 13.1651 13.4424C13.1651 13.2645 13.3092 13.1201 13.4873 13.1201H19.6491C19.8271 13.1201 19.9714 13.2645 19.9714 13.4424C19.9714 13.6205 19.8271 13.7646 19.6491 13.7646Z" fill="#1C1C1C"/>
<path d="M19.6492 16.4946H6.48813C6.31021 16.4946 6.16586 16.3504 6.16586 16.1724C6.16586 15.9944 6.31021 15.8501 6.48813 15.8501H19.6492C19.8271 15.8501 19.9714 15.9944 19.9714 16.1724C19.9714 16.3504 19.8271 16.4946 19.6492 16.4946Z" fill="#1C1C1C"/>
<path d="M19.6492 19.2251H6.48813C6.31021 19.2251 6.16586 19.0807 6.16586 18.9028C6.16586 18.7247 6.31021 18.5806 6.48813 18.5806H19.6492C19.8271 18.5806 19.9714 18.7247 19.9714 18.9028C19.9714 19.0807 19.8271 19.2251 19.6492 19.2251Z" fill="#1C1C1C"/>
<path d="M8.55865 5.91675H7.6769L6.25356 3.44157H6.23341C6.23938 3.54452 6.2446 3.64821 6.24908 3.75265C6.25356 3.85708 6.25803 3.96152 6.26251 4.06596C6.26698 4.1689 6.27146 4.2726 6.27594 4.37703V5.91675H5.65602V2.64486H6.53106L7.95216 5.09542H7.96783C7.96485 4.99396 7.96112 4.89326 7.95664 4.79329C7.95216 4.69333 7.94769 4.59337 7.94321 4.49341C7.94023 4.39345 7.93724 4.29348 7.93426 4.19352V2.64486H8.55865V5.91675ZM11.9105 5.91675H10.0261V2.64486H11.9105V3.2133H10.7199V3.93168H11.8277V4.50012H10.7199V5.34383H11.9105V5.91675ZM17.2563 2.64486L16.4238 5.91675H15.6338L15.1907 4.198C15.1817 4.16517 15.1698 4.11519 15.1549 4.04806C15.14 3.98092 15.1243 3.90781 15.1079 3.82874C15.0915 3.74817 15.0766 3.67282 15.0631 3.6027C15.0512 3.53109 15.043 3.47439 15.0385 3.43262C15.034 3.47439 15.0251 3.53034 15.0117 3.60046C14.9997 3.67059 14.9856 3.74519 14.9691 3.82426C14.9542 3.90333 14.9393 3.97719 14.9244 4.04582C14.9095 4.11445 14.8975 4.16667 14.8886 4.20247L14.4477 5.91675H13.6599L12.8252 2.64486H13.5078L13.9263 4.43075C13.9382 4.48446 13.9516 4.54861 13.9665 4.62321C13.9829 4.69781 13.9986 4.77614 14.0135 4.8582C14.0299 4.93876 14.0441 5.01709 14.0561 5.09318C14.0695 5.16778 14.0792 5.23268 14.0851 5.28788C14.0926 5.23119 14.1023 5.16554 14.1142 5.09094C14.1262 5.01485 14.1389 4.93802 14.1523 4.86043C14.1672 4.78136 14.1821 4.70825 14.197 4.64111C14.212 4.57397 14.2254 4.51952 14.2373 4.47774L14.714 2.64486H15.3697L15.8464 4.47774C15.8569 4.51803 15.8688 4.57248 15.8822 4.64111C15.8971 4.70825 15.9121 4.78136 15.927 4.86043C15.9419 4.93951 15.9553 5.01709 15.9673 5.09318C15.9807 5.16778 15.9904 5.23268 15.9964 5.28788C16.0068 5.21328 16.021 5.12302 16.0389 5.01709C16.0583 4.90967 16.0784 4.80299 16.0993 4.69706C16.1217 4.59113 16.1411 4.50236 16.1575 4.43075L16.5738 2.64486H17.2563ZM20.2411 5.00814C20.2411 5.20209 20.1941 5.37069 20.1001 5.51392C20.0062 5.65715 19.8689 5.76755 19.6884 5.84513C19.5093 5.92272 19.2915 5.96151 19.0349 5.96151C18.9215 5.96151 18.8103 5.95405 18.7014 5.93913C18.594 5.92421 18.4903 5.90257 18.3903 5.87423C18.2919 5.84439 18.1979 5.80783 18.1084 5.76457V5.12004C18.2635 5.18867 18.4247 5.25058 18.5918 5.30579C18.7589 5.36099 18.9245 5.38859 19.0886 5.38859C19.202 5.38859 19.293 5.37367 19.3616 5.34383C19.4317 5.31399 19.4825 5.27296 19.5138 5.22074C19.5451 5.16852 19.5608 5.10885 19.5608 5.04171C19.5608 4.95965 19.5332 4.88953 19.478 4.83134C19.4228 4.77315 19.3467 4.7187 19.2497 4.66797C19.1542 4.61724 19.0461 4.56278 18.9252 4.5046C18.8491 4.46879 18.7663 4.42552 18.6768 4.3748C18.5873 4.32258 18.5022 4.25917 18.4217 4.18457C18.3411 4.10997 18.2747 4.01971 18.2225 3.91378C18.1718 3.80636 18.1464 3.67805 18.1464 3.52885C18.1464 3.3334 18.1912 3.1663 18.2807 3.02755C18.3702 2.88879 18.4978 2.78286 18.6634 2.70976C18.8305 2.63516 19.0274 2.59786 19.2542 2.59786C19.4243 2.59786 19.5862 2.618 19.7398 2.65828C19.895 2.69708 20.0569 2.75377 20.2255 2.82837L20.0017 3.36772C19.851 3.30655 19.716 3.25955 19.5966 3.22673C19.4772 3.19241 19.3557 3.17525 19.2318 3.17525C19.1453 3.17525 19.0714 3.18943 19.0103 3.21777C18.9491 3.24463 18.9028 3.28342 18.8715 3.33415C18.8402 3.38338 18.8245 3.44082 18.8245 3.50647C18.8245 3.58405 18.8469 3.6497 18.8916 3.70341C18.9379 3.75563 19.0065 3.80636 19.0975 3.85559C19.19 3.90483 19.3049 3.96227 19.4422 4.02791C19.6093 4.10699 19.7518 4.18979 19.8696 4.27633C19.989 4.36137 20.0807 4.46208 20.1449 4.57845C20.2091 4.69333 20.2411 4.83656 20.2411 5.00814Z" fill="#1C1C1C"/>
</g>
<defs>
<clipPath id="clip0_828_1253">
<rect width="22" height="22" fill="white"/>
</clipPath>
</defs>
</svg>
