<svg width="22" height="22" viewBox="0 0 22 22" fill="none" xmlns="http://www.w3.org/2000/svg">
<g clip-path="url(#clip0_395_3201)">
<path d="M1.89717 21.169V21.1685C0.849472 21.1684 0 20.3197 0 19.272V4.55203C0 4.10355 0.363556 3.73999 0.812042 3.73999H8.05077V21.169H1.89717Z" fill="#1CB954"/>
<path d="M1.89714 3.73999H2.18785V19.2719C2.18785 20.0325 1.74004 20.6878 1.09399 20.9901C1.33788 21.1042 1.60995 21.1684 1.89714 21.1684L8.05074 21.169V3.73999H1.89714Z" fill="#108239"/>
<path d="M4.60626 0.859375C4.15794 0.859375 3.79439 1.22293 3.79439 1.67142V19.272C3.79439 20.3197 2.94492 21.1692 1.89722 21.1692H20.1029C21.1506 21.1692 22 20.3197 22 19.272V1.67142C22 1.22293 21.6365 0.859375 21.188 0.859375H4.60626Z" fill="#1CB954"/>
<path d="M11.495 13.4423H6.94185C6.69125 13.4423 6.48816 13.2392 6.48816 12.9888V8.43562C6.48816 8.18503 6.69125 7.98193 6.94185 7.98193H11.495C11.7456 7.98193 11.9487 8.18503 11.9487 8.43562V12.9888C11.9486 13.2392 11.7456 13.4423 11.495 13.4423Z" fill="#E0E0E0"/>
<path d="M7.81616 12.9888V8.43562C7.81616 8.18503 8.01926 7.98193 8.26985 7.98193H6.94185C6.69142 7.98193 6.48816 8.18503 6.48816 8.43562V12.9888C6.48816 13.2392 6.69125 13.4423 6.94185 13.4423H8.26985C8.01926 13.4423 7.81616 13.2392 7.81616 12.9888Z" fill="#A0A0A0"/>
<path d="M19.6491 8.30444H13.4873C13.3092 8.30444 13.165 8.1601 13.165 7.98218C13.165 7.80409 13.3092 7.65991 13.4873 7.65991H19.6491C19.827 7.65991 19.9714 7.80409 19.9714 7.98218C19.9714 8.1601 19.827 8.30444 19.6491 8.30444Z" fill="#E0E0E0"/>
<path d="M19.6491 11.0344H13.4873C13.3092 11.0344 13.165 10.8902 13.165 10.7122C13.165 10.5342 13.3092 10.3899 13.4873 10.3899H19.6491C19.827 10.3899 19.9714 10.5342 19.9714 10.7122C19.9714 10.8902 19.827 11.0344 19.6491 11.0344Z" fill="#E0E0E0"/>
<path d="M19.6491 13.7646H13.4873C13.3092 13.7646 13.165 13.6205 13.165 13.4424C13.165 13.2645 13.3092 13.1201 13.4873 13.1201H19.6491C19.827 13.1201 19.9714 13.2645 19.9714 13.4424C19.9714 13.6205 19.827 13.7646 19.6491 13.7646Z" fill="#E0E0E0"/>
<path d="M19.6492 16.4949H6.48816C6.31024 16.4949 6.16589 16.3507 6.16589 16.1726C6.16589 15.9947 6.31024 15.8503 6.48816 15.8503H19.6492C19.8271 15.8503 19.9714 15.9947 19.9714 16.1726C19.9714 16.3507 19.8271 16.4949 19.6492 16.4949Z" fill="#E0E0E0"/>
<path d="M19.6492 19.2251H6.48816C6.31024 19.2251 6.16589 19.0807 6.16589 18.9028C6.16589 18.7247 6.31024 18.5806 6.48816 18.5806H19.6492C19.8271 18.5806 19.9714 18.7247 19.9714 18.9028C19.9714 19.0807 19.8271 19.2251 19.6492 19.2251Z" fill="#E0E0E0"/>
<path d="M8.55862 5.91675H7.67687L6.25353 3.44157H6.23338C6.26173 3.87872 6.2759 4.19054 6.2759 4.37703V5.91675H5.65599V2.64486H6.53103L7.95213 5.09542H7.9678C7.94542 4.67021 7.93423 4.36957 7.93423 4.19352V2.64486H8.55862V5.91675ZM11.9105 5.91675H10.0261V2.64486H11.9105V3.2133H10.7199V3.93168H11.8276V4.50012H10.7199V5.34383H11.9105V5.91675ZM16.4238 5.91675H15.6338L15.1907 4.198C15.1743 4.13683 15.1459 4.01076 15.1056 3.81978C15.0668 3.62732 15.0445 3.49826 15.0385 3.43262C15.0295 3.51318 15.0072 3.64299 14.9713 3.82202C14.9355 3.99957 14.9079 4.12638 14.8885 4.20247L14.4477 5.91675H13.6599L12.8251 2.64486H13.5077L13.9262 4.43075C13.9993 4.76047 14.0523 5.04618 14.0851 5.28788C14.0941 5.20284 14.1142 5.07155 14.1455 4.894C14.1784 4.71497 14.209 4.57621 14.2373 4.47774L14.714 2.64486H15.3697L15.8464 4.47774C15.8673 4.5598 15.8934 4.68513 15.9247 4.85372C15.956 5.02231 15.9799 5.16703 15.9963 5.28788C16.0113 5.17151 16.0351 5.02679 16.0679 4.85372C16.1008 4.67916 16.1306 4.53817 16.1575 4.43075L16.5737 2.64486H17.2563L16.4238 5.91675ZM20.2411 5.00814C20.2411 5.30355 20.1344 5.5363 19.9211 5.70638C19.7092 5.87646 19.4138 5.96151 19.0348 5.96151C18.6857 5.96151 18.3769 5.89586 18.1083 5.76457V5.12004C18.3291 5.21851 18.5156 5.28788 18.6678 5.32817C18.8215 5.36845 18.9617 5.38859 19.0886 5.38859C19.2407 5.38859 19.3571 5.3595 19.4377 5.30131C19.5197 5.24312 19.5608 5.15659 19.5608 5.04171C19.5608 4.97755 19.5429 4.92086 19.5071 4.87162C19.4712 4.8209 19.4183 4.77241 19.3482 4.72616C19.2795 4.6799 19.1385 4.60605 18.9252 4.5046C18.7253 4.4106 18.5753 4.32034 18.4754 4.23381C18.3754 4.14727 18.2956 4.04656 18.2359 3.93168C18.1762 3.8168 18.1464 3.68252 18.1464 3.52885C18.1464 3.23941 18.2441 3.01188 18.4396 2.84627C18.6365 2.68066 18.908 2.59786 19.2542 2.59786C19.4243 2.59786 19.5861 2.618 19.7398 2.65828C19.895 2.69857 20.0568 2.75526 20.2254 2.82837L20.0016 3.36772C19.8271 3.2961 19.6824 3.24612 19.5675 3.21777C19.4541 3.18943 19.3422 3.17525 19.2318 3.17525C19.1005 3.17525 18.9998 3.20584 18.9297 3.26701C18.8595 3.32818 18.8245 3.408 18.8245 3.50647C18.8245 3.56764 18.8387 3.62135 18.867 3.6676C18.8953 3.71236 18.9401 3.75637 19.0013 3.79964C19.0639 3.84142 19.2109 3.91751 19.4422 4.02791C19.748 4.17413 19.9576 4.32109 20.071 4.46879C20.1844 4.615 20.2411 4.79479 20.2411 5.00814Z" fill="#E0E0E0"/>
</g>
<defs>
<clipPath id="clip0_395_3201">
<rect width="22" height="22" fill="white"/>
</clipPath>
</defs>
</svg>
